<?xml version="1.0" encoding="utf-8"?>
<!DOCTYPE svg PUBLIC "-//W3C//DTD SVG 1.1//EN" "http://www.w3.org/Graphics/SVG/1.1/DTD/svg11.dtd">
<svg version="1.1" xmlns="http://www.w3.org/2000/svg" xmlns:xlink="http://www.w3.org/1999/xlink" x="0px" y="0px" viewBox="0 0 256 256" enable-background="new 0 0 256 256" xml:space="preserve">
<g><g><path fill="#000000" d="M128,85.1c-23.7,0-42.9,19.2-42.9,42.9c0,23.7,19.2,42.9,42.9,42.9c23.7,0,42.9-19.2,42.9-42.9C170.9,104.3,151.7,85.1,128,85.1z M223.9,117.3C219,72.5,183.4,37,138.7,32.1V10h-21.5v22.1C72.5,37,37,72.6,32.1,117.3H10v21.5h22.1c4.9,44.7,40.5,80.2,85.2,85.2V246h21.5v-22.1c44.7-4.9,80.2-40.5,85.2-85.2H246v-21.5H223.9z M128,203.1c-41.5,0-75.1-33.6-75.1-75.1c0-41.5,33.6-75.1,75.1-75.1c41.5,0,75.1,33.6,75.1,75.1C203.1,169.4,169.5,203.1,128,203.1z"/></g></g>
</svg>